<svg width="258" height="249" viewBox="0 0 258 249" fill="none" xmlns="http://www.w3.org/2000/svg">
<g clip-path="url(#clip0_10_290)">
<path d="M245.863 234.697C244.255 235.186 242.528 235.309 240.849 235.053C239.17 234.797 237.596 234.172 236.278 233.237C232.92 230.801 231.866 226.787 231.011 223.07L228.478 212.076L233.781 215.234C237.596 217.505 241.495 219.848 244.136 223.138C246.777 226.427 247.93 230.917 245.808 234.476" fill="#E6E6E6"/>
<path d="M245.41 248.008C245.946 244.627 246.498 241.203 246.122 237.785C245.787 234.751 244.717 231.787 242.537 229.356C241.379 228.068 239.971 226.965 238.376 226.096C237.959 225.869 237.577 226.439 237.991 226.665C240.752 228.174 242.887 230.401 244.089 233.027C245.417 235.947 245.63 239.13 245.4 242.232C245.261 244.107 244.968 245.97 244.672 247.832C244.649 247.916 244.663 248.005 244.712 248.081C244.762 248.156 244.843 248.212 244.939 248.238C245.036 248.26 245.14 248.249 245.228 248.206C245.316 248.163 245.38 248.091 245.408 248.007L245.41 248.008Z" fill="#F2F2F2"/>
<path d="M226.188 191.853H4.30237V0H226.188V191.853Z" fill="white"/>
<path d="M226.188 191.853H4.30237V0H226.188V191.853ZM7.58068 189.018H222.909V2.83461H7.58068V189.018Z" fill="#E5E5E5"/>
<path d="M186.88 30.0155H90.7944V32.6035H186.88V30.0155Z" fill="#E5E5E5"/>
<path d="M186.88 36.7443H90.7944V39.3322H186.88V36.7443Z" fill="#E5E5E5"/>
<path d="M186.88 43.4731H90.7944V46.061H186.88V43.4731Z" fill="#E5E5E5"/>
<path d="M186.88 87.7942H90.7944V90.3822H186.88V87.7942Z" fill="#E5E5E5"/>
<path d="M186.88 94.523H90.7944V97.111H186.88V94.523Z" fill="#E5E5E5"/>
<path d="M186.88 101.252H90.7944V103.84H186.88V101.252Z" fill="#E5E5E5"/>
<path d="M186.88 145.573H90.7944V148.161H186.88V145.573Z" fill="#E5E5E5"/>
<path d="M186.88 152.302H90.7944V154.89H186.88V152.302Z" fill="#E5E5E5"/>
<path d="M186.88 159.03H90.7944V161.618H186.88V159.03Z" fill="#E5E5E5"/>
<path d="M52.3291 50.6352C50.6876 49.8873 48.9742 49.2638 47.2082 48.7719L46.983 46.618L37.8502 45.7672L36.6895 48.5203L33.4119 49.5837C33.2946 49.6222 33.183 49.6725 33.0793 49.7335H33.0758C32.8929 49.8404 32.7371 49.9784 32.6179 50.1391C32.4988 50.2998 32.4188 50.4798 32.3828 50.6682C32.3478 50.8555 32.3561 51.0469 32.4072 51.2314L32.5804 51.8455C32.8298 51.9743 33.0863 52.0971 33.3426 52.214L33.5055 52.2859C33.8797 52.4536 34.2608 52.6124 34.6523 52.7592C34.732 52.7892 34.8186 52.8191 34.8983 52.8491C34.9052 52.8521 34.9086 52.8521 34.9155 52.8551C35.0993 52.921 35.2828 52.9839 35.4699 53.0438C36.0845 53.2467 36.7114 53.4208 37.3477 53.5651C38.9719 53.9393 40.6456 54.1287 42.3265 54.1283C42.9398 54.1283 43.5461 54.1043 44.1455 54.0534C45.515 53.944 46.8671 53.708 48.1784 53.3494C48.1818 53.3494 48.1853 53.3464 48.1887 53.3464C49.0171 53.1182 49.8263 52.8409 50.6106 52.5165C50.614 52.5135 50.6209 52.5136 50.6245 52.5106C50.8011 52.4387 50.9709 52.3608 51.1442 52.2859L51.2272 52.2499C51.3658 52.187 51.5045 52.1241 51.6431 52.0582C51.9895 51.8934 52.3291 51.7197 52.665 51.5339C52.7586 51.486 52.8488 51.4351 52.9423 51.3812C53.0739 51.3063 53.2056 51.2284 53.3338 51.1475C53.0115 50.9678 52.6755 50.797 52.3291 50.6352Z" fill="#3F3D56"/>
<path d="M35.1893 51.9624L34.6176 49.7305H33.1243C33.1093 49.7307 33.0942 49.7317 33.0793 49.7335H33.0758C32.5391 49.7728 32.0223 49.9272 31.5722 50.1829C31.2669 50.3514 30.9954 50.5619 30.7684 50.806C31.2118 51.0966 31.6727 51.3662 32.1474 51.6238L32.1682 51.6328C32.3032 51.7047 32.4419 51.7766 32.5805 51.8455C32.8298 51.9743 33.0863 52.0972 33.3426 52.214L33.5055 52.2859C33.8797 52.4536 34.2609 52.6124 34.6523 52.7592C34.732 52.7892 34.8186 52.8191 34.8983 52.8491C34.9052 52.8521 34.9086 52.8521 34.9156 52.8551C35.0993 52.921 35.2828 52.9839 35.4699 53.0438L35.1893 51.9624Z" fill="#3F3D56"/>
<path d="M42.0581 44.4054C45.6908 44.4054 48.6357 41.8591 48.6357 38.7182C48.6357 35.5772 45.6908 33.0309 42.0581 33.0309C38.4255 33.0309 35.4806 35.5772 35.4806 38.7182C35.4806 41.8591 38.4255 44.4054 42.0581 44.4054Z" fill="#FFB8B8"/>
<path d="M37.642 35.948C38.3229 36.6447 39.4752 36.8413 40.5381 36.9219C43.0233 37.0406 45.5156 36.8647 47.9456 36.399C48.0961 37.6608 47.6856 39.0214 48.5452 40.0594C48.9481 38.8027 49.1824 37.5101 49.2435 36.2071C49.3076 35.6481 49.2232 35.0838 48.9966 34.5572C48.8755 34.2934 48.6712 34.0642 48.4069 33.8957C48.1426 33.7273 47.829 33.6263 47.5017 33.6042C47.9917 33.2828 48.5657 33.0706 49.173 32.9864L47.0845 32.0789L47.6208 31.6028L43.8397 31.4028L44.9348 30.8012C43.2865 30.6054 41.619 30.5598 39.9597 30.6654C39.1843 30.6657 38.4236 30.8485 37.7593 31.1943C37.135 31.5803 36.7742 32.3475 37.1618 32.9142C36.6766 32.9831 36.2197 33.158 35.8345 33.4222C35.4493 33.6865 35.1486 34.0314 34.9607 34.4243C34.7231 35.0488 34.6657 35.7141 34.7936 36.3622C34.936 37.402 35.2155 38.4243 35.6266 39.4092L37.642 35.948Z" fill="#2F2E41"/>
<path d="M60.5541 32.553C59.6312 30.2606 58.1411 28.1699 56.1878 26.4266C54.2344 24.6833 51.8647 23.3295 49.244 22.4594C46.6233 21.5894 43.8146 21.2241 41.0139 21.389C38.2131 21.554 35.4877 22.2452 33.0276 23.4144C30.5675 24.5837 28.4321 26.2029 26.7701 28.1591C25.1081 30.1153 23.9597 32.3614 23.4048 34.7408C22.85 37.1202 22.9021 39.5756 23.5575 41.9358C24.2129 44.2961 25.4559 46.5042 27.1997 48.4064C27.3729 48.5951 27.5531 48.7839 27.7368 48.9666C27.7507 48.9786 27.761 48.9906 27.7749 49.0026C28.2265 49.4525 28.7065 49.8805 29.2127 50.2847C29.3445 50.3896 29.483 50.4974 29.6216 50.5993C29.8848 50.803 30.1551 50.9977 30.4358 51.1834C30.5466 51.2583 30.654 51.3332 30.7684 51.4052C31.2118 51.6957 31.6726 51.9653 32.1473 52.223L32.1681 52.2319C32.3031 52.3039 32.4419 52.3758 32.5804 52.4447C32.8298 52.5735 33.0863 52.6963 33.3426 52.8131L33.5055 52.885C33.8797 53.0528 34.2608 53.2116 34.6523 53.3583C34.732 53.3883 34.8186 53.4183 34.8983 53.4482C34.9052 53.4512 34.9086 53.4512 34.9155 53.4542C35.0992 53.5201 35.2828 53.583 35.4699 53.643C36.0845 53.8459 36.7114 54.0199 37.3477 54.1642C38.9719 54.5385 40.6456 54.7278 42.3265 54.7274C42.9398 54.7274 43.5461 54.7034 44.1455 54.6525C45.515 54.5432 46.867 54.3072 48.1784 53.9485C48.1818 53.9485 48.1853 53.9455 48.1887 53.9455C49.0171 53.7173 49.8263 53.4401 50.6106 53.1157C50.614 53.1127 50.6209 53.1127 50.6245 53.1097C50.8011 53.0378 50.9709 52.9599 51.1442 52.885L51.2272 52.8491C51.3658 52.7862 51.5045 52.7233 51.6431 52.6574C51.9895 52.4926 52.3291 52.3188 52.665 52.1331C52.7586 52.0852 52.8488 52.0342 52.9423 51.9803C53.0739 51.9054 53.2055 51.8275 53.3338 51.7466C53.5035 51.6448 53.6733 51.5399 53.8396 51.4321C53.8915 51.3991 53.947 51.3662 53.999 51.3303C57.2449 49.2 59.6274 46.2357 60.805 42.8625C61.9826 39.4893 61.8948 35.8804 60.5541 32.553V32.553ZM53.3615 50.6023C53.2472 50.6802 53.1294 50.7551 53.0115 50.824C52.8971 50.8989 52.783 50.9708 52.665 51.0367C52.5646 51.0996 52.4641 51.1595 52.3602 51.2164L52.3291 51.2344C52.2528 51.2793 52.1766 51.3212 52.1003 51.3632C51.8127 51.519 51.5217 51.6687 51.2272 51.8126L51.1337 51.8575C51.0021 51.9204 50.8705 51.9803 50.7388 52.0402C50.7214 52.0492 50.7006 52.0552 50.6834 52.0642L50.6626 52.0732C50.4963 52.1481 50.3264 52.22 50.1567 52.2889C49.5016 52.5617 48.8269 52.7978 48.1368 52.9959C48.0466 53.0228 47.9566 53.0498 47.8666 53.0738C46.6254 53.4151 45.3454 53.6401 44.0485 53.7448C43.4803 53.7898 42.9051 53.8137 42.3265 53.8137C40.7367 53.8165 39.1534 53.6372 37.6181 53.2805C36.8301 53.1026 36.0579 52.8764 35.3072 52.6034C35.2689 52.5885 35.2273 52.5765 35.1892 52.5615C35.1478 52.5465 35.1096 52.5345 35.0715 52.5196C35.0299 52.5046 34.9918 52.4896 34.9502 52.4716C34.6245 52.3488 34.3023 52.214 33.9871 52.0732L33.8347 52.0043C33.45 51.8305 33.0724 51.6448 32.7051 51.4471C32.5977 51.3902 32.4869 51.3303 32.3828 51.2673C32.3553 51.2524 32.3309 51.2374 32.3032 51.2224C32.0572 51.0816 31.8112 50.9348 31.5722 50.782C31.4094 50.6772 31.2465 50.5723 31.0871 50.4645C30.8203 50.2907 30.5639 50.105 30.3145 49.9133C30.1829 49.8174 30.0547 49.7125 29.93 49.6137C29.4387 49.2215 28.9737 48.8054 28.5372 48.3675C28.3917 48.2237 28.2496 48.0799 28.1144 47.9301C28.0837 47.9005 28.0548 47.8695 28.0278 47.8372C25.7767 45.3811 24.4227 42.4008 24.1384 39.2766C23.8542 36.1524 24.6526 33.0257 26.4318 30.2954C28.211 27.5652 30.8904 25.3549 34.1283 23.9467C37.3662 22.5384 41.0159 21.9959 44.6118 22.3884C48.2077 22.7809 51.5869 24.0905 54.3185 26.1503C57.0501 28.2101 59.0103 30.9268 59.949 33.9537C60.8877 36.9807 60.7625 40.1808 59.5892 43.1459C58.416 46.1111 56.2479 48.7069 53.3615 50.6023L53.3615 50.6023Z" fill="#3F3D56"/>
<path d="M60.5542 90.3317C59.6313 88.0393 58.1412 85.9486 56.1879 84.2053C54.2345 82.462 51.8648 81.1082 49.2441 80.2381C46.6234 79.3681 43.8147 79.0028 41.014 79.1677C38.2132 79.3327 35.4878 80.0239 33.0277 81.1932C30.5676 82.3624 28.4322 83.9816 26.7702 85.9378C25.1083 87.894 23.9598 90.1401 23.4049 92.5195C22.8501 94.8989 22.9022 97.3543 23.5576 99.7145C24.213 102.075 25.456 104.283 27.1998 106.185C27.373 106.374 27.5532 106.563 27.7367 106.745C27.7506 106.757 27.7609 106.769 27.7748 106.781C28.2265 107.231 28.7066 107.659 29.2128 108.063C29.3444 108.168 29.483 108.276 29.6215 108.378C29.8849 108.582 30.1551 108.776 30.4357 108.962C30.9837 109.336 31.5551 109.683 32.1473 110.002L32.1681 110.011C32.5526 110.217 32.9441 110.409 33.3426 110.592L33.5054 110.664C33.8796 110.831 34.2608 110.99 34.6522 111.137C34.7319 111.167 34.8185 111.197 34.8982 111.227C34.9051 111.23 34.9087 111.23 34.9156 111.233C35.7066 111.517 36.5193 111.755 37.3478 111.943C38.9719 112.317 40.6456 112.507 42.3264 112.506C42.9397 112.506 43.546 112.482 44.1454 112.431C45.5149 112.322 46.867 112.086 48.1783 111.727C48.1819 111.727 48.1852 111.724 48.1886 111.724C49.017 111.496 49.8262 111.219 50.6105 110.894C50.6139 110.891 50.621 110.891 50.6244 110.888C50.801 110.817 50.9709 110.739 51.1441 110.664L51.2273 110.628C51.3659 110.565 51.5044 110.502 51.643 110.436C51.9894 110.271 52.329 110.098 52.6651 109.912C52.7587 109.864 52.8487 109.813 52.9422 109.759C53.2471 109.585 53.5485 109.399 53.8395 109.211C53.8916 109.178 53.947 109.145 53.9991 109.109C57.2449 106.979 59.6273 104.014 60.8049 100.641C61.9825 97.268 61.8947 93.6591 60.5542 90.3317V90.3317Z" fill="white"/>
<path d="M48.6959 102.696C50.2934 102.696 51.5885 101.577 51.5885 100.195C51.5885 98.8139 50.2934 97.6941 48.6959 97.6941C47.0983 97.6941 45.8032 98.8139 45.8032 100.195C45.8032 101.577 47.0983 102.696 48.6959 102.696Z" fill="#2F2E41"/>
<path d="M49.5018 97.7631C50.0025 97.7631 50.4945 97.8754 50.9299 98.0891C51.3653 98.3028 51.7291 98.6106 51.9858 98.9823C52.2424 99.354 52.3831 99.7769 52.394 100.21C52.405 100.642 52.2859 101.07 52.0483 101.451C52.299 101.18 52.4816 100.867 52.5845 100.531C52.6874 100.195 52.7082 99.8447 52.6458 99.5016C52.5833 99.1586 52.4389 98.8305 52.2217 98.5384C52.0045 98.2463 51.7193 97.9964 51.3843 97.8049C51.0493 97.6133 50.6719 97.4842 50.2759 97.4257C49.88 97.3672 49.4744 97.3807 49.0848 97.4652C48.6953 97.5498 48.3304 97.7036 48.0134 97.9168C47.6963 98.13 47.4342 98.398 47.2435 98.7037C47.5139 98.4101 47.8575 98.1731 48.2485 98.0102C48.6396 97.8474 49.0681 97.7629 49.5021 97.763L49.5018 97.7631Z" fill="#2F2E41"/>
<path d="M43.2903 100.19C47.9833 100.19 51.7878 96.9004 51.7878 92.8426C51.7878 88.7848 47.9833 85.4953 43.2903 85.4953C38.5973 85.4953 34.7928 88.7848 34.7928 92.8426C34.7928 96.9004 38.5973 100.19 43.2903 100.19Z" fill="#2F2E41"/>
<path d="M36.6212 88.284C38.0854 86.8602 40.1321 85.9839 42.3293 85.8402C44.5265 85.6964 46.7023 86.2964 48.3976 87.5135C48.3283 87.4562 48.2591 87.3987 48.1873 87.3433C46.5087 86.0431 44.3015 85.3727 42.0513 85.4795C39.801 85.5864 37.692 86.4619 36.1882 87.9133C34.6844 89.3647 33.9091 91.2731 34.0327 93.2188C34.1563 95.1645 35.1688 96.9881 36.8474 98.2883C36.8635 98.3008 36.8797 98.3132 36.896 98.3256C36.968 98.381 37.0422 98.4335 37.116 98.4865C35.5195 97.1733 34.5756 95.3752 34.4833 93.4717C34.3911 91.5681 35.1578 89.708 36.6216 88.284L36.6212 88.284Z" fill="#2F2E41"/>
<path d="M43.2183 100.128C46.2408 100.128 48.6911 98.009 48.6911 95.3955C48.6911 92.7821 46.2408 90.6635 43.2183 90.6635C40.1957 90.6635 37.7455 92.7821 37.7455 95.3955C37.7455 98.009 40.1957 100.128 43.2183 100.128Z" fill="#A0616A"/>
<path d="M53.0117 107.725V109.313C52.6755 109.498 52.336 109.672 51.9895 109.837C51.851 109.903 51.7124 109.966 51.5739 110.029L51.4906 110.065C51.3174 110.139 51.1475 110.217 50.9709 110.289C50.9675 110.292 50.9604 110.292 50.957 110.295C50.1728 110.62 49.3635 110.897 48.5352 111.125C48.5318 111.125 48.5284 111.128 48.5248 111.128C47.2135 111.487 45.8615 111.723 44.4919 111.832C43.8925 111.883 43.2862 111.907 42.673 111.907C40.9922 111.907 39.3185 111.718 37.6944 111.344C36.8658 111.155 36.0532 110.918 35.2622 110.634C35.2552 110.631 35.2517 110.631 35.2447 110.628C35.165 110.598 35.0784 110.568 34.9987 110.538C34.6073 110.391 34.2261 110.232 33.8519 110.065L33.6892 109.993C33.2906 109.81 32.8991 109.618 32.5146 109.412L32.4938 109.403C31.9016 109.084 31.3303 108.736 30.7823 108.363C30.5016 108.177 30.2314 107.983 29.968 107.779C29.8295 107.677 29.6909 107.569 29.5593 107.464C29.0531 107.06 28.5731 106.632 28.1213 106.182C28.1812 105.87 28.2693 105.563 28.3848 105.262L28.3881 105.259C28.4089 105.208 28.4332 105.158 28.4609 105.11C28.48 105.067 28.502 105.025 28.5267 104.984C29.1469 103.98 30.2695 103.732 31.6623 103.678C32.4488 103.648 33.3184 103.681 34.2366 103.672C34.7216 103.669 35.2239 103.654 35.7264 103.615C38.8965 103.366 38.3215 101.748 38.4634 100.877C38.6055 100.032 39.4856 100.763 39.5445 100.811L39.5478 100.814C41.3418 101.54 43.3266 101.841 45.2992 101.686C45.6388 101.65 45.9783 101.629 46.3178 101.62C47.2117 101.611 47.0177 101.832 46.7095 102.015C46.5598 102.1 46.4035 102.176 46.2417 102.243C46.2417 102.243 46.0996 102.992 45.9541 104.112C45.8156 105.185 48.1923 105.688 48.3897 105.727C48.3938 105.729 48.3987 105.73 48.4036 105.73C49.2715 105.535 50.1854 105.556 51.0403 105.79H51.0437C51.5322 105.945 51.9681 106.203 52.3117 106.541C52.6554 106.879 52.896 107.286 53.0117 107.725Z" fill="#2A6CCE"/>
<path d="M35.2966 109.651C35.2966 109.873 35.2898 110.086 35.2793 110.286C35.2759 110.406 35.269 110.523 35.2621 110.634C35.2551 110.631 35.2516 110.631 35.2446 110.628C35.1649 110.598 35.0783 110.568 34.9987 110.538C34.6072 110.391 34.226 110.232 33.8518 110.065L33.6891 109.993C33.2905 109.81 32.8991 109.618 32.5145 109.412C32.5248 109.307 32.5423 109.202 32.5595 109.097C32.5976 108.866 32.6289 108.633 32.6497 108.402C32.7859 106.781 32.4462 105.157 31.6622 103.681V103.678C31.5928 103.558 31.5514 103.492 31.5514 103.492C31.5514 103.492 32.5595 102.743 33.9973 103.492C34.0892 103.539 34.1702 103.6 34.2365 103.672C35.1027 104.555 35.3382 107.527 35.2966 109.651Z" fill="#2F2E41"/>
<path d="M51.0298 109.244C51.0159 109.579 50.9951 109.93 50.9709 110.286V110.289C50.9675 110.292 50.9604 110.292 50.957 110.295C50.1727 110.62 49.3635 110.897 48.5351 111.125C48.5318 111.125 48.5284 111.128 48.5248 111.128L48.4868 110.286L48.4832 110.175L48.2997 106.077C48.2948 105.985 48.3116 105.892 48.3493 105.805C48.3869 105.718 48.4446 105.638 48.5187 105.571C48.5929 105.504 48.682 105.451 48.7807 105.414C48.8794 105.377 48.9857 105.358 49.0931 105.358H50.8496C50.9362 105.358 50.9986 105.511 51.0403 105.787V105.79C51.1255 106.94 51.122 108.094 51.0298 109.244Z" fill="#2F2E41"/>
<path d="M38.5375 89.4804V94.2137H39.8049L41.4177 92.7194L41.2018 94.2137H46.8042L46.4577 92.7194L47.1507 94.2137H48.0439V89.4804H38.5375Z" fill="#2F2E41"/>
<path d="M37.6734 95.0843C37.912 95.0843 38.1054 94.7777 38.1054 94.3995C38.1054 94.0212 37.912 93.7146 37.6734 93.7146C37.4348 93.7146 37.2413 94.0212 37.2413 94.3995C37.2413 94.7777 37.4348 95.0843 37.6734 95.0843Z" fill="#A0616A"/>
<path d="M48.7635 95.0843C49.0021 95.0843 49.1955 94.7777 49.1955 94.3995C49.1955 94.0212 49.0021 93.7146 48.7635 93.7146C48.5249 93.7146 48.3314 94.0212 48.3314 94.3995C48.3314 94.7777 48.5249 95.0843 48.7635 95.0843Z" fill="#A0616A"/>
<path d="M54.1859 108.612C53.8949 108.8 53.5935 108.986 53.2886 109.16C53.1951 109.214 53.1051 109.265 53.0115 109.313C52.6754 109.498 52.3358 109.672 51.9894 109.837C51.8508 109.903 51.7123 109.966 51.5737 110.029V106.727C51.5737 106.727 52.1279 107.111 53.0115 107.749C53.1223 107.83 53.2367 107.914 53.358 108.004C53.6143 108.189 53.8916 108.393 54.1859 108.612Z" fill="#2A6CCE"/>
<path d="M60.5542 90.3317C59.6313 88.0393 58.1412 85.9486 56.1879 84.2053C54.2345 82.462 51.8648 81.1082 49.2441 80.2381C46.6234 79.3681 43.8147 79.0028 41.014 79.1677C38.2132 79.3327 35.4878 80.0239 33.0277 81.1932C30.5676 82.3624 28.4322 83.9816 26.7702 85.9378C25.1083 87.894 23.9598 90.1401 23.4049 92.5195C22.8501 94.8989 22.9022 97.3543 23.5576 99.7145C24.213 102.075 25.456 104.283 27.1998 106.185C27.373 106.374 27.5532 106.563 27.7367 106.745C27.7506 106.757 27.7609 106.769 27.7748 106.781C28.2265 107.231 28.7066 107.659 29.2128 108.063C29.3444 108.168 29.483 108.276 29.6215 108.378C29.8849 108.582 30.1551 108.776 30.4357 108.962C30.9837 109.336 31.5551 109.683 32.1473 110.002L32.1681 110.011C32.5526 110.217 32.9441 110.409 33.3426 110.592L33.5054 110.664C33.8796 110.831 34.2608 110.99 34.6522 111.137C34.7319 111.167 34.8185 111.197 34.8982 111.227C34.9051 111.23 34.9087 111.23 34.9156 111.233C35.7066 111.517 36.5193 111.755 37.3478 111.943C38.9719 112.317 40.6456 112.507 42.3264 112.506C42.9397 112.506 43.546 112.482 44.1454 112.431C45.5149 112.322 46.867 112.086 48.1783 111.727C48.1819 111.727 48.1852 111.724 48.1886 111.724C49.017 111.496 49.8262 111.219 50.6105 110.894C50.6139 110.891 50.621 110.891 50.6244 110.888C50.801 110.817 50.9709 110.739 51.1441 110.664L51.2273 110.628C51.3659 110.565 51.5044 110.502 51.643 110.436C51.9894 110.271 52.329 110.098 52.6651 109.912C52.7587 109.864 52.8487 109.813 52.9422 109.759C53.2471 109.585 53.5485 109.399 53.8395 109.211C53.8916 109.178 53.947 109.145 53.9991 109.109C57.2449 106.979 59.6273 104.014 60.8049 100.641C61.9825 97.268 61.8947 93.6591 60.5542 90.3317V90.3317ZM53.3614 108.381C53.2471 108.459 53.1293 108.534 53.0116 108.603C52.8972 108.678 52.7829 108.749 52.6651 108.815C52.5646 108.878 52.4642 108.938 52.3601 108.995C52.2735 109.046 52.1869 109.094 52.1003 109.142C51.8128 109.298 51.5218 109.447 51.2273 109.591L51.1336 109.636C51.002 109.699 50.8704 109.759 50.7387 109.819C50.7213 109.828 50.7005 109.834 50.6833 109.843L50.6625 109.852C50.4962 109.927 50.3265 109.999 50.1566 110.068C49.5015 110.34 48.8268 110.577 48.1367 110.775C48.0467 110.802 47.9565 110.828 47.8665 110.852C46.6253 111.194 45.3453 111.419 44.0485 111.523C43.4802 111.568 42.905 111.592 42.3264 111.592C40.7366 111.595 39.1534 111.416 37.618 111.059C36.83 110.881 36.0578 110.655 35.3071 110.382C35.2274 110.355 35.1477 110.325 35.0714 110.298C35.03 110.283 34.9918 110.268 34.9501 110.25C34.6245 110.127 34.3024 109.993 33.987 109.852L33.8346 109.783C33.4501 109.609 33.0723 109.423 32.705 109.226C32.57 109.154 32.4349 109.079 32.3032 109.001C31.8874 108.764 31.4821 108.51 31.0871 108.243C30.8203 108.069 30.564 107.884 30.3144 107.692C30.1828 107.596 30.0546 107.491 29.9299 107.392C29.4387 107 28.9737 106.584 28.5371 106.146C28.3916 106.002 28.2495 105.859 28.1143 105.709C28.0836 105.679 28.0547 105.648 28.0277 105.616C25.7766 103.16 24.4226 100.18 24.1384 97.0553C23.8541 93.9311 24.6525 90.8044 26.4317 88.0741C28.211 85.3438 30.8904 83.1336 34.1283 81.7254C37.3662 80.3171 41.0158 79.7746 44.6117 80.1671C48.2076 80.5596 51.5868 81.8692 54.3184 83.929C57.05 85.9888 59.0102 88.7054 59.9489 91.7324C60.8876 94.7593 60.7624 97.9594 59.5891 100.925C58.4159 103.89 56.2478 106.486 53.3614 108.381V108.381Z" fill="#3F3D56"/>
<path d="M42.4356 161.097C46.6121 161.097 49.9978 158.169 49.9978 154.558C49.9978 150.947 46.6121 148.02 42.4356 148.02C38.2591 148.02 34.8734 150.947 34.8734 154.558C34.8734 158.169 38.2591 161.097 42.4356 161.097Z" fill="#2F2E41"/>
<path d="M36.5329 151.033C37.7549 149.976 38.0025 148.477 37.086 147.685C36.1695 146.892 34.4359 147.106 33.2139 148.163C31.9919 149.22 31.7442 150.719 32.6607 151.511C33.5772 152.304 35.3108 152.089 36.5329 151.033Z" fill="#2F2E41"/>
<path d="M50.3173 148.956C50.8265 147.926 49.9509 146.614 48.3616 146.027C46.7723 145.44 45.0712 145.8 44.562 146.831C44.0529 147.861 44.9285 149.173 46.5178 149.76C48.107 150.347 49.8081 149.987 50.3173 148.956Z" fill="#2F2E41"/>
<path d="M51.481 167.241L50.5901 166.029C50.212 165.299 49.5147 164.728 48.6507 164.441C47.7868 164.155 46.8268 164.176 45.9809 164.5C45.135 164.825 44.4721 165.425 44.1376 166.171C43.803 166.917 43.824 167.747 44.1959 168.48L44.4493 169.266L44.7376 170.157C45.9049 170.029 47.0567 169.812 48.1792 169.507C48.1825 169.507 48.1856 169.506 48.1879 169.503C49.0177 169.276 49.8277 168.999 50.612 168.673C50.6163 168.669 50.6206 168.669 50.625 168.665C50.7997 168.593 50.9701 168.518 51.1447 168.442C51.1733 168.431 51.201 168.419 51.2277 168.405C51.3674 168.344 51.5073 168.28 51.6427 168.216C51.7824 168.151 51.9177 168.084 52.0487 168.012L51.481 167.241Z" fill="#CACACA"/>
<path d="M42.6752 161.668C46.2198 161.668 49.0932 159.184 49.0932 156.119C49.0932 153.054 46.2198 150.57 42.6752 150.57C39.1307 150.57 36.2573 153.054 36.2573 156.119C36.2573 159.184 39.1307 161.668 42.6752 161.668Z" fill="#FFB6B6"/>
<path d="M51.9441 167.004C51.2361 165.986 50.3574 165.064 49.3365 164.269C48.6373 163.729 47.7324 163.431 46.7947 163.431H37.7539C37.2329 163.431 36.7174 163.523 36.2393 163.702C35.7612 163.881 35.3306 164.143 34.9741 164.471C34.6176 164.799 34.3427 165.188 34.1665 165.611C33.9904 166.035 33.9166 166.486 33.9498 166.936C33.9695 167.189 34.0223 167.44 34.1071 167.683C34.1716 167.86 34.2519 168.031 34.3473 168.197L34.7927 168.967C34.8277 168.979 34.8627 168.994 34.8975 169.005C34.9062 169.009 34.9107 169.009 34.9149 169.013C35.0983 169.077 35.2819 169.141 35.4696 169.201C36.0842 169.405 36.7112 169.578 37.3478 169.722C38.3725 169.96 39.4185 170.123 40.4748 170.21C41.0907 170.259 41.7065 170.285 42.3267 170.285C42.9426 170.285 43.5452 170.259 44.1479 170.21C44.3445 170.195 44.541 170.176 44.7376 170.157C45.9049 170.029 47.0566 169.812 48.1791 169.507C48.1825 169.507 48.1855 169.506 48.1879 169.503C49.0176 169.276 49.8277 168.999 50.612 168.673C50.6162 168.669 50.6205 168.669 50.625 168.665C50.7997 168.593 50.97 168.518 51.1447 168.442C51.1732 168.431 51.2009 168.419 51.2277 168.405C51.3673 168.344 51.5072 168.28 51.6427 168.216C51.7823 168.152 51.9177 168.084 52.0487 168.012C52.1886 167.948 52.3195 167.876 52.455 167.804C52.2891 167.521 52.1187 167.257 51.9441 167.004Z" fill="#CACACA"/>
<path d="M39.3915 164.443C38.5548 164.105 37.5973 164.067 36.7281 164.337C35.859 164.607 35.149 165.164 34.7533 165.886L33.9496 166.936L33.5653 167.438L32.9801 168.201C33.1023 168.257 33.2202 168.314 33.3426 168.371L33.5041 168.442C33.8798 168.608 34.2597 168.767 34.6529 168.914C34.6964 168.933 34.7446 168.948 34.7926 168.967C34.8276 168.979 34.8625 168.994 34.8973 169.005C34.906 169.009 34.9105 169.009 34.9148 169.013C35.0982 169.077 35.2818 169.141 35.4694 169.201C36.084 169.405 36.711 169.578 37.3476 169.722C38.3723 169.96 39.4183 170.123 40.4746 170.21L40.7804 169.315L41.0775 168.461C41.469 167.735 41.5114 166.904 41.1953 166.151C40.8792 165.397 40.2305 164.783 39.3915 164.443Z" fill="#CACACA"/>
<path d="M35.9316 152.629C37.3982 153.503 39.139 153.968 40.9201 153.962C40.2848 154.343 39.5615 154.6 38.8 154.716C41.1682 155.155 43.6158 155.167 45.9896 154.751C46.5172 154.678 47.0263 154.526 47.4946 154.304C47.728 154.191 47.9313 154.037 48.0913 153.852C48.2514 153.667 48.3646 153.455 48.4236 153.23C48.5813 152.45 47.8792 151.743 47.1495 151.265C46.0322 150.546 44.7441 150.051 43.3782 149.815C42.0123 149.579 40.6028 149.608 39.2516 149.901C38.3514 150.057 37.5322 150.458 36.9126 151.044C36.6128 151.342 36.4318 151.716 36.3963 152.11C36.3609 152.504 36.4729 152.897 36.7158 153.232L35.9316 152.629Z" fill="#2F2E41"/>
<path d="M60.5566 148.11C59.6339 145.818 58.144 143.727 56.1906 141.983C54.2372 140.24 51.8675 138.886 49.2466 138.015C46.6258 137.145 43.8169 136.78 41.016 136.945C38.215 137.109 35.4894 137.801 33.0291 138.97C30.5689 140.139 28.4332 141.759 26.7712 143.715C25.1091 145.671 23.9607 147.918 23.4059 150.297C22.8511 152.677 22.9033 155.132 23.559 157.493C24.2146 159.853 25.4579 162.061 27.202 163.964C27.3722 164.152 27.5558 164.341 27.7392 164.522C27.7497 164.536 27.7614 164.548 27.7742 164.56C28.2265 165.01 28.7076 165.437 29.2154 165.84C29.3463 165.946 29.4817 166.056 29.6216 166.158C29.8835 166.362 30.1544 166.554 30.4382 166.739C30.5474 166.815 30.6566 166.89 30.7702 166.962C31.2113 167.253 31.6742 167.521 32.146 167.781C32.154 167.782 32.1618 167.784 32.1677 167.789C32.3031 167.861 32.443 167.933 32.5827 168C32.7137 168.068 32.8491 168.136 32.9802 168.201C33.1024 168.257 33.2204 168.314 33.3428 168.371L33.5042 168.442C33.88 168.608 34.2598 168.767 34.653 168.914C34.6965 168.933 34.7447 168.948 34.7927 168.967C34.8277 168.979 34.8627 168.994 34.8974 169.005C34.9062 169.009 34.9106 169.009 34.9149 169.013C35.0983 169.077 35.2819 169.141 35.4696 169.201C36.0842 169.405 36.7112 169.579 37.3477 169.723C38.3724 169.96 39.4184 170.123 40.4747 170.21C41.0906 170.259 41.7065 170.285 42.3267 170.285C42.9426 170.285 43.5452 170.259 44.1479 170.21C44.3445 170.195 44.5409 170.176 44.7375 170.157C45.9048 170.029 47.0566 169.812 48.1791 169.507C48.1824 169.507 48.1855 169.506 48.1878 169.503C49.0176 169.276 49.8276 168.999 50.6119 168.673C50.6162 168.669 50.6205 168.669 50.6249 168.665C50.7996 168.593 50.97 168.518 51.1447 168.442C51.1732 168.431 51.2009 168.419 51.2276 168.405C51.3673 168.344 51.5072 168.28 51.6426 168.216C51.7823 168.152 51.9176 168.084 52.0487 168.012C52.1885 167.948 52.3195 167.876 52.4549 167.804C52.5249 167.766 52.5947 167.729 52.6646 167.691C52.7607 167.642 52.848 167.593 52.9441 167.536C53.0751 167.464 53.2062 167.385 53.3327 167.306C53.5031 167.204 53.6735 167.098 53.8394 166.988C53.8953 166.957 53.9493 166.923 54.001 166.886C57.2445 164.755 59.6251 161.791 60.8026 158.418C61.98 155.046 61.8939 151.438 60.5566 148.11L60.5566 148.11ZM53.3634 166.158C53.2497 166.237 53.1318 166.312 53.0141 166.38C52.896 166.456 52.7825 166.528 52.6646 166.596C52.5641 166.656 52.4637 166.717 52.359 166.773C52.3495 166.78 52.3392 166.787 52.3283 166.792C52.254 166.837 52.1754 166.879 52.1012 166.92C52.0487 166.947 51.9964 166.977 51.944 167.004C51.7911 167.087 51.6382 167.166 51.481 167.241C51.398 167.287 51.3106 167.328 51.2276 167.37C51.1972 167.385 51.1664 167.4 51.1359 167.415C51.0005 167.479 50.8696 167.536 50.7384 167.596C50.7211 167.608 50.6992 167.612 50.6862 167.623C50.678 167.623 50.6702 167.626 50.6642 167.63C50.4983 167.706 50.3279 167.778 50.1577 167.846C49.5019 168.119 48.8264 168.354 48.1354 168.552C48.0482 168.578 47.9565 168.608 47.869 168.631C46.7552 168.937 45.61 169.149 44.4492 169.266C44.3183 169.281 44.1829 169.292 44.0475 169.303C43.4798 169.349 42.9076 169.371 42.3267 169.371C41.8112 169.371 41.2915 169.352 40.7806 169.315C39.7123 169.238 38.6541 169.079 37.6186 168.839C36.8303 168.661 36.0581 168.434 35.3082 168.159C35.2687 168.144 35.2295 168.133 35.1903 168.118C35.1465 168.102 35.1116 168.091 35.0723 168.076C35.0286 168.061 34.9936 168.046 34.9499 168.027C34.6661 167.921 34.3822 167.804 34.1071 167.683C34.0677 167.664 34.0284 167.649 33.9892 167.63L33.8363 167.562C33.7446 167.521 33.6529 167.479 33.5655 167.438C33.2729 167.302 32.9845 167.155 32.7052 167.004C32.6003 166.947 32.4868 166.886 32.3819 166.826L32.3032 166.781C32.0586 166.637 31.8142 166.494 31.5738 166.339C31.4122 166.233 31.2463 166.131 31.0891 166.022C30.8227 165.848 30.5649 165.663 30.3161 165.47C30.1849 165.376 30.054 165.27 29.9318 165.172C29.4399 164.78 28.9748 164.364 28.5386 163.926C28.3944 163.782 28.2502 163.639 28.1148 163.488C28.0843 163.458 28.0581 163.427 28.0274 163.393C25.7758 160.937 24.4213 157.956 24.1368 154.832C23.8522 151.707 24.6505 148.58 26.4298 145.849C28.209 143.119 30.8887 140.908 34.1269 139.499C37.3652 138.091 41.0152 137.548 44.6117 137.94C48.2081 138.333 51.5878 139.642 54.3199 141.702C57.0519 143.762 59.0124 146.479 59.9514 149.507C60.8903 152.534 60.7652 155.735 59.5919 158.7C58.4185 161.666 56.2502 164.262 53.3635 166.158H53.3634Z" fill="#3F3D56"/>
<path d="M74.6174 66.5735C67.8967 61.67 59.6725 58.5613 50.9457 57.6256C42.2189 56.6899 33.3657 57.9675 25.4634 61.3031C17.5611 64.6386 10.9504 69.8882 6.43569 76.413C1.92101 82.9379 -0.302964 90.4567 0.0343765 98.0546C0.371717 105.652 3.25583 113.002 8.33576 119.208C13.4157 125.414 20.4724 130.21 28.6472 133.012C36.8221 135.814 45.7625 136.501 54.3807 134.99C62.9988 133.478 70.9231 129.833 77.1892 124.499L132.832 165.095C133.679 165.71 134.773 166.011 135.876 165.929C136.979 165.848 137.999 165.392 138.713 164.662C139.428 163.931 139.778 162.985 139.687 162.032C139.597 161.078 139.072 160.194 138.229 159.575L138.223 159.57L82.5807 118.974C89.0446 110.953 91.8111 101.133 90.338 91.4401C88.8649 81.7469 83.2585 72.8787 74.6174 66.5735ZM71.0303 115.065C66.6955 119.507 60.9347 122.738 54.4764 124.349C48.018 125.96 41.1522 125.879 34.7472 124.116C28.3421 122.353 22.6855 118.987 18.4926 114.445C14.2997 109.902 11.7589 104.386 11.1915 98.5951C10.6241 92.8039 12.0555 86.9973 15.3048 81.9095C18.554 76.8217 23.4752 72.6813 29.446 70.0118C35.4167 67.3423 42.1689 66.2637 48.8487 66.9123C55.5284 67.5609 61.8357 69.9076 66.973 73.6557C73.8618 78.6817 78.1594 85.868 78.9203 93.6338C79.6812 101.4 76.8431 109.109 71.0303 115.065Z" fill="#2A6CCE"/>
<path opacity="0.3" d="M23.1389 118.573C16.6191 113.816 12.4068 107.113 11.3384 99.7944C10.2701 92.4761 12.4237 85.0781 17.3718 79.0692C16.722 79.635 16.0938 80.2276 15.4872 80.847C12.6091 83.7963 10.4309 87.2069 9.07713 90.8841C7.72336 94.5613 7.22051 98.433 7.59727 102.278C7.97403 106.123 9.22303 109.867 11.273 113.295C13.3229 116.723 16.1336 119.768 19.5446 122.256C22.9556 124.745 26.9001 126.628 31.1529 127.799C35.4057 128.969 39.8835 129.404 44.3306 129.078C48.7778 128.753 53.1072 127.673 57.0716 125.9C61.036 124.128 64.5579 121.698 67.4361 118.748C68.0413 118.128 68.6112 117.493 69.1458 116.843C63.1278 122.071 55.0559 125.151 46.533 125.472C38.01 125.792 29.6592 123.33 23.1389 118.573Z" fill="black"/>
<path d="M186.792 166.613C187.227 166.154 187.54 165.618 187.709 165.043C187.879 164.469 187.9 163.869 187.772 163.286C187.645 162.703 187.371 162.152 186.97 161.671C186.569 161.19 186.051 160.79 185.452 160.501L175.31 124.607L167.911 126.649L178.863 162.298C178.367 163.2 178.271 164.228 178.594 165.187C178.916 166.145 179.634 166.969 180.611 167.501C181.589 168.032 182.758 168.236 183.897 168.072C185.036 167.908 186.066 167.389 186.792 166.613H186.792Z" fill="#FFB6B6"/>
<path d="M181.55 143.653L176.143 147.686L168.578 153.325L165.237 138.544L164.888 137.007L164.613 135.787L172.278 124.243L178.667 124.56L179.104 124.582L179.113 124.666L179.213 125.44L180.524 135.628L180.554 135.874L181.55 143.653Z" fill="#3F3D56"/>
<path d="M146.209 243.982L140.854 243.982L138.307 226.124L146.21 226.124L146.209 243.982Z" fill="#FFB6B6"/>
<path d="M147.574 248.47L130.309 248.469V248.28C130.309 246.739 131.017 245.261 132.278 244.172C133.538 243.082 135.247 242.47 137.029 242.47H137.03L147.575 242.47L147.574 248.47Z" fill="#2F2E41"/>
<path d="M202.113 244.36L196.759 244.359L194.211 226.501L202.114 226.502L202.113 244.36Z" fill="#FFB6B6"/>
<path d="M203.478 248.847L186.213 248.847V248.658C186.213 247.117 186.921 245.639 188.182 244.549C189.442 243.46 191.151 242.848 192.933 242.848H192.934L203.479 242.848L203.478 248.847Z" fill="#2F2E41"/>
<path d="M206.392 237.251L191.98 239.139L171.011 177.78L148.741 239.517L132.581 237.628L153.545 165.877V160.213L156.384 151.716L156.087 149.416L154.021 133.332L153.126 126.357L153.068 125.907C153.019 125.529 153.135 125.148 153.393 124.84C153.651 124.532 154.032 124.317 154.463 124.239L161.189 123.015H172.182L178.667 124.56L179.113 124.666L179.314 124.715L179.213 125.44L177.693 136.459L177.611 137.063L176.143 147.686L175.82 150.016C188.486 157.947 188.922 165.877 188.922 165.877L206.392 237.251Z" fill="#2A6CCE"/>
<path d="M165.357 118.238C171.281 118.238 176.084 114.085 176.084 108.962C176.084 103.84 171.281 99.6873 165.357 99.6873C159.432 99.6873 154.63 103.84 154.63 108.962C154.63 114.085 159.432 118.238 165.357 118.238Z" fill="#FFB6B6"/>
<path d="M176.624 147.885L155.403 150.285L155.8 152.906L177.02 150.506L176.624 147.885Z" fill="#3F3D56"/>
<path d="M126.94 151.075C127.142 151.188 127.335 151.315 127.515 151.455L148.503 146.829L149.935 142.451L157.859 143.455L156.195 151.419C156.061 152.062 155.689 152.651 155.135 153.096C154.581 153.541 153.875 153.818 153.123 153.887L128.616 156.118C128.217 156.845 127.571 157.45 126.764 157.852C125.958 158.254 125.029 158.434 124.101 158.368C123.173 158.302 122.29 157.994 121.57 157.484C120.85 156.974 120.326 156.286 120.069 155.513C119.812 154.739 119.833 153.916 120.13 153.153C120.427 152.39 120.985 151.723 121.731 151.241C122.477 150.76 123.375 150.486 124.305 150.456C125.236 150.426 126.155 150.642 126.94 151.075Z" fill="#FFB6B6"/>
<path d="M159.223 126.603L155.511 124.148C154.507 123.819 153.132 124.754 152.89 125.659L147.649 144.163L158.568 150.961L160.097 148.884L159.223 126.603Z" fill="#3F3D56"/>
<g opacity="0.2">
<path opacity="0.2" d="M180.524 135.628C179.597 135.946 178.653 136.224 177.694 136.459C177.388 136.539 177.073 136.614 176.763 136.686C174.719 137.176 172.619 137.47 170.5 137.562C169.588 137.595 168.675 137.574 167.766 137.498C166.791 137.414 165.827 137.249 164.888 137.007C164.857 136.999 164.822 136.992 164.792 136.984C162.839 136.505 161.049 135.625 159.573 134.42C159.243 134.142 158.935 133.846 158.651 133.533C157.836 132.669 157.237 131.668 156.894 130.593C156.551 129.518 156.471 128.393 156.659 127.29C156.696 127.09 156.746 126.892 156.808 126.697C156.973 126.166 157.19 125.648 157.459 125.149C157.577 124.915 157.708 124.684 157.848 124.458L162.783 123.015H172.182L178.668 124.56L179.104 124.583L179.113 124.666L179.314 124.715L179.213 125.44L180.524 135.628Z" fill="black"/>
</g>
<path d="M157.137 101.284C155.131 101.071 152.929 101.221 151.365 102.329C149.802 103.436 149.297 105.738 150.778 106.928C152.088 107.981 154.138 107.733 155.893 108.033C157.405 108.326 158.76 109.049 159.741 110.087C160.721 111.124 161.271 112.417 161.302 113.756C161.276 117.599 157.011 120.508 156.245 124.293C155.722 126.876 156.982 129.594 159.16 131.419C161.339 133.243 164.333 134.229 167.35 134.496C170.367 134.763 173.417 134.356 176.349 133.685C179.294 133.012 182.192 132.058 184.663 130.518C187.133 128.978 189.158 126.807 189.951 124.265C190.745 121.723 190.175 118.808 188.131 116.856C185.791 114.62 181.897 113.852 179.872 111.397C177.603 108.645 178.443 104.725 176.606 101.742C175.379 99.7494 173.057 98.3907 170.582 97.6749C168.107 96.9591 165.464 96.8178 162.855 96.7485C161.484 96.7121 160.071 96.6999 158.793 97.1322C157.515 97.5644 156.392 98.5495 156.326 99.7343C156.26 100.919 157.137 101.284 157.137 101.284Z" fill="#2F2E41"/>
<path d="M257.563 249H91.1606C91.0448 249 90.9337 248.96 90.8518 248.889C90.7699 248.819 90.7239 248.723 90.7239 248.622C90.7239 248.522 90.7699 248.426 90.8518 248.355C90.9337 248.284 91.0448 248.245 91.1606 248.245H257.563C257.679 248.245 257.79 248.284 257.872 248.355C257.954 248.426 258 248.522 258 248.622C258 248.723 257.954 248.819 257.872 248.889C257.79 248.96 257.679 249 257.563 249Z" fill="#CACACA"/>
</g>
<defs>
<clipPath id="clip0_10_290">
<rect width="258" height="249" fill="white"/>
</clipPath>
</defs>
</svg>
